# xmcd
#
# Track frame offsets: 
#        150
#        11486
#        28292
#        47881
#        58169
#        74377
#        94338
#        108187
#        122755
#        152404
#        166091
#        186851
#        198149
#        228623
#        249363
#        264550
#        286349
#        298536
#        316314
#        328889
#
# Disc length: 4723 seconds
#
# Revision: 1
# Processed by: cddbd v1.5.2PL0 Copyright (c) Steve Scherf et al.
# Submitted via: ExactAudioCopyFreeDBPlugin 1.0
#
DISCID=20127114
DTITLE=Various Artist - How Many Roads:  Black America Sings Bob Dyla
DTITLE=n
DYEAR=2010
DGENRE=Soul
TTITLE0=O.V. Wright - Blowin' in the Wind
TTITLE1=Howard Tate - Girl from the North Country
TTITLE2=Marion Williams - I Pity the Poor Immigrant
TTITLE3=Solomon Burke - Maggie's Farm
TTITLE4=Brook Benton - Don't Think Twice, It's Alright
TTITLE5=Gary U.S. Bonds - From a Buick 6
TTITLE6=The Persuasions - The Man in Me
TTITLE7=Major Harris - Like a Rolling Stone
TTITLE8=The Neville Brothers - With God on Our Side
TTITLE9=Con-Funk-Shun - Mr. Tambourine Man
TTITLE10=The Staple Singers - Masters of War
TTITLE11=Bill Brandon - I'll Be Your Baby Tonight
TTITLE12=Patti LaBelle - Most Likely You Go Your Way and I'll Go Mine
TTITLE13=Booker T. Jones - Knockin' on Heaven's Door
TTITLE14=Bobby Womack - All Aong the Watchtower
TTITLE15=Nina Simone - Just Like a Woman
TTITLE16=Freddie Scott - I Shall Be Released
TTITLE17=The  Isley Brothers - Lay Lady Lay
TTITLE18=Esther Philips - Tonight I'll Be Staying Here with You
TTITLE19=The O'Jays - Emotinoally Yours
EXTD=
EXTT0=
EXTT1=
EXTT2=
EXTT3=
EXTT4=
EXTT5=
EXTT6=
EXTT7=
EXTT8=
EXTT9=
EXTT10=
EXTT11=
EXTT12=
EXTT13=
EXTT14=
EXTT15=
EXTT16=
EXTT17=
EXTT18=
EXTT19=
PLAYORDER=
